<?xml version="1.0" standalone="no"?>
<!DOCTYPE svg PUBLIC "-//W3C//DTD SVG 20010904//EN"
 "http://www.w3.org/TR/2001/REC-SVG-20010904/DTD/svg10.dtd">
<svg version="1.0" xmlns="http://www.w3.org/2000/svg"
 width="512.000000pt" height="512.000000pt" viewBox="0 0 512.000000 512.000000"
 preserveAspectRatio="xMidYMid meet">
<metadata>
Created by potrace 1.14, written by Peter Selinger 2001-2017
</metadata>
<g transform="translate(0.000000,512.000000) scale(0.100000,-0.100000)"
fill="#000000" stroke="none">
<path d="M2280 4865 c-527 -60 -877 -209 -1275 -541 -434 -362 -714 -862 -800
-1429 -22 -143 -30 -389 -16 -530 13 -145 66 -382 121 -548 244 -729 860
-1302 1605 -1492 224 -58 323 -70 580 -70 247 0 347 11 555 62 401 97 797 323
1086 619 163 167 204 218 342 427 206 311 299 602 333 1040 41 529 -75 1030
-341 1482 -275 464 -721 789 -1266 921 -264 64 -660 89 -924 59z m638 -1051
c12 -14 22 -36 22 -49 0 -24 -98 -297 -265 -735 -47 -124 -85 -231 -85 -237 0
-10 74 -13 339 -13 l338 0 27 -26 c30 -31 34 -69 9 -104 -10 -14 -191 -241
-403 -505 -212 -264 -454 -566 -538 -671 -84 -106 -159 -195 -168 -198 -57
-22 -124 17 -124 71 0 15 77 235 171 488 94 253 173 468 176 477 5 15 -22 17
-337 20 l-342 3 -24 28 c-13 15 -24 41 -24 56 0 22 113 170 531 692 292 365
543 677 558 693 49 52 97 56 139 10z"/>
</g>
</svg>
